<?xml version="1.0" standalone="no"?>
<!DOCTYPE svg PUBLIC "-//W3C//DTD SVG 20010904//EN"
 "http://www.w3.org/TR/2001/REC-SVG-20010904/DTD/svg10.dtd">
<svg version="1.0" xmlns="http://www.w3.org/2000/svg"
 width="300.000000pt" height="300.000000pt" viewBox="0 0 300.000000 300.000000"
 preserveAspectRatio="xMidYMid meet">
<metadata>
Created by potrace 1.10, written by Peter Selinger 2001-2011
</metadata>
<g transform="translate(0.000000,300.000000) scale(0.050000,-0.050000)"
fill="#1eebbd" stroke="none">
<path d="M3631 5409 c-74 -74 -33 -151 99 -187 241 -64 401 -249 551 -637 73
-191 75 -176 -24 -226 -184 -94 -380 -329 -448 -536 l-34 -104 -62 42 c-317
212 -769 286 -1112 181 -156 -48 -409 -166 -431 -202 -25 -40 -43 -18 -77 90
-294 931 -1710 837 -1911 -126 -110 -528 265 -1112 755 -1178 109 -15 104 8
70 -337 -121 -1216 347 -1599 1953 -1598 1613 1 2069 392 1932 1659 -30 283
-37 261 80 277 512 70 892 708 736 1234 -146 491 -688 834 -1128 715 -47 -13
-52 -6 -96 130 -137 429 -354 691 -660 796 -134 46 -152 47 -193 7z m-2340
-1131 c970 -179 804 -1642 -179 -1573 -926 65 -1011 1421 -99 1574 139 23 147
23 278 -1z m3718 -31 c440 -155 657 -670 459 -1087 -364 -768 -1498 -518
-1498 330 0 566 515 941 1039 757z m-1859 -476 c318 -61 610 -234 610 -360 0
-397 376 -820 796 -893 l117 -21 23 -303 c50 -629 10 -849 -186 -1044 -490
-489 -2571 -495 -3098 -10 -203 188 -254 432 -207 995 32 396 17 359 157 385
385 72 696 397 774 811 32 169 35 175 120 233 279 192 592 264 894 207z"/>
<path d="M1070 3678 c-124 -71 -148 -223 -52 -320 180 -179 457 74 287 262
-61 69 -170 95 -235 58z"/>
<path d="M4660 3675 c-79 -40 -128 -159 -101 -243 60 -180 314 -178 383 3 59
155 -130 315 -282 240z"/>
<path d="M1890 1976 c-99 -56 -92 -108 32 -244 526 -576 1433 -595 2012 -42
161 154 185 221 102 279 -68 47 -77 42 -241 -116 -489 -472 -1206 -468 -1693
9 -151 148 -152 148 -212 114z"/>
<path d="M1670 5050 c-200 -72 -158 -264 85 -383 255 -126 815 -31 932 157 99
158 -705 337 -1017 226z m639 -134 c116 -29 180 -76 105 -76 -30 0 -60 -11
-65 -25 -10 -26 -131 -40 -327 -39 -89 0 -247 49 -320 98 -13 8 41 66 55 58 7
-4 31 0 53 10 48 19 389 2 499 -26z"/>
</g>
</svg>
