<?xml version="1.0" encoding="utf-8"?>
<!-- Generator: Adobe Illustrator 19.0.0, SVG Export Plug-In . SVG Version: 6.00 Build 0)  -->
<svg version="1.1" id="Layer_1" xmlns="http://www.w3.org/2000/svg" xmlns:xlink="http://www.w3.org/1999/xlink" x="0px" y="0px"
	 viewBox="0 0 512 512" style="enable-background:new 0 0 512 512;" xml:space="preserve">
<style type="text/css">
	.st0{fill:#010101;}
</style>
<g>
	<g>
		<path class="st0" d="M403.1,108.9c-81.2-81.2-213-81.2-294.2,0s-81.2,212.9,0,294.2c81.2,81.2,213,81.2,294.2,0
			S484.3,190.1,403.1,108.9z M399.6,399.6c-80.2,80.2-211.4,79.2-290.3-3.1c-75.1-78.2-75.1-202.9,0-281.1
			c78.9-82.2,210.1-83.2,290.3-3.1C478.9,191.5,478.9,320.5,399.6,399.6z"/>
	</g>
	<polygon class="st0" points="295.5,211 255.8,250.5 216.4,211.2 210.9,216.7 250.3,256 210.9,295.3 216.4,300.8 255.8,261.5 
		295.5,301 301,295.5 261.4,256 301,216.5 	"/>
</g>
</svg>
